<?xml version="1.0" standalone="no"?><!DOCTYPE svg PUBLIC "-//W3C//DTD SVG 1.1//EN" "http://www.w3.org/Graphics/SVG/1.1/DTD/svg11.dtd">
<svg t="1593498777953" class="icon" viewBox="0 0 1024 1024" version="1.1" xmlns="http://www.w3.org/2000/svg" p-id="2577" width="200" height="200"><path d="M442.656838 182.589302C537.033528 179.744965 609.204285 183.178886 658.972784 192.852902c21.792123 4.23596-40.902153 19.656649-28.377339 36.455132 12.76206 17.150214 45.469779 30.740839 77.727113 80.713975 21.439448 33.302704 34.666099 67.453922 39.502709 102.31733l-79.527141-87.176166-85.762665-79.729136-139.878623-62.844735z" fill="#8495B9" p-id="2578"></path><path d="M762.150563 442.93486l-101.012345-110.809955-84.303789-78.324972-138.286181-62.127708 3.818938-19.122649c94.69026-2.885257 168.273457 0.619471 218.532769 10.388891 9.227296 1.793605 11.921594 6.799677 12.608959 10.600667 1.481169 9.150745-6.750482 13.764846-17.269762 19.666096-4.340772 2.416133-13.843022 7.801971-16.746757 11.210537 3.790411 4.607905 9.680401 9.420183 17.08651 15.342138 16.11293 13.013588 38.214013 30.858536 60.048869 64.747458 22.151184 34.357896 35.975086 70.153283 41.07354 106.290048l4.449249 32.139449zM487.342714 191.682843l100.716535 45.248972L675.537117 318.318685l53.997958 59.190798c-6.722635-20.96798-16.640961-41.742166-29.694977-62.107152-20.114138-31.2114-39.930122-47.185966-55.865808-60.063229-8.706821-7.091633-16.290175-13.149913-21.446816-20.162691-3.239596-4.297094-4.325129-9.194197-3.272921-14.083252 1.98993-9.189134 11.01493-15.788328 20.574422-21.468655-39.098649-5.868189-90.221891-8.572652-152.486261-7.941661z" fill="#333333" p-id="2579"></path><path d="M372.843718 560.613704c82.16057 33.797939 148.134645 55.484835 197.903143 65.158851 21.792123 4.23596-24.580428-30.245869-6.6748-41.129272 18.257359-11.120649 53.693647-11.567293 102.322393-45.817768 32.372803-22.944534 57.429612-49.654201 74.974101-80.167164l-106.412128 51.135105c-26.641657 16.520052-63.246943 29.269681-109.834939 38.347048-46.667078 8.960124-97.399974 13.156939-152.27777 12.4732z" fill="#8495B9" p-id="2580"></path><path d="M573.82323 636.150221c-1.529683 0.008275-3.217531-0.217938-4.984459-0.561394-50.161149-9.75034-117.373177-31.881613-199.730073-65.717714l3.936182-19.201731c53.95617 0.708337 104.49274-3.526639 150.120948-12.383085 45.197395-8.736443 81.039219-21.226988 106.50844-36.956221l0.468974-0.316327 136.086024-65.435803-16.145841 28.034297c-18.283355 31.693674-44.509842 59.704053-77.937837 83.360324-32.959021 23.339943-60.135623 31.606279-79.950248 37.636258-9.417878 2.855447-16.897099 5.170885-22.17582 8.219672 0.82369 3.623746 6.198496 11.086417 8.590031 14.505563 5.988379 8.498783 11.18594 15.82513 6.264693 23.323886-2.333839 3.621214-6.050232 5.445613-11.051014 5.492275zM423.119352 569.775067c53.003031 20.286169 98.188222 34.672222 134.966596 43.043674-5.121237-7.718998-9.639934-16.441462-7.900813-24.864374 1.071289-4.987218 4.010427-9.102004 8.623848-11.872626 7.408187-4.570423 16.708821-7.346788 27.438218-10.660403 19.599218-5.969978 43.858294-13.37722 74.317038-34.860119 19.732331-13.991965 36.808753-29.518904 50.915695-46.539897l-71.691241 34.453678c-27.541444 16.956381-65.458249 30.164178-112.771546 39.304305-32.521067 6.412504-67.32999 10.444731-103.897795 11.995762z m146.000381 23.489759z" fill="#333333" p-id="2581"></path><path d="M745.541265 419.372754l70.113497-17.951534c1.077032-0.300005 2.15958 0.41978 2.459584 1.496812 0.100921 0.528975 0.084598 1.137033-0.305294 1.570603-13.714065 20.76474-21.726871 36.831007-23.978418 48.414208-2.232465 11.485038-0.840731 29.481234 4.09612 53.871345 0.201842 1.057951-0.517943 2.140499-1.575893 2.34234-0.528975 0.100921-1.117952-0.013564-1.570603-0.305294l-61.670066-45.401354c-61.015649 42.946717-263.584509 105.035503-332.200249 91.697954-80.002615-15.550933-287.081516-130.984286-267.63808-231.012096 19.443437-100.02781 229.262546-163.254081 356.383267-138.544316 109.372349 21.157959 229.544787 168.08745 255.886135 233.821332z" fill="#EFF4FF" p-id="2582"></path><path d="M135.316239 357.601417c101.39321-79.819778 204.569861-112.737536 309.491789-98.556952s201.860219 75.198351 290.932116 182.974217l76.459842-41.167131-67.618736 15.074702c-47.82149-95.682732-102.517846-160.714098-163.971826-195.17318-92.239591-51.649083-117.75317-47.745585-251.777964-29.075703s-154.289124 72.084645-185.093856 98.492002c-20.653731 17.683987-23.395411 40.174056-8.421365 67.432045z" fill="#C1C5D7" p-id="2583"></path><path d="M424.701442 579.454788c-13.649908-0.00461-23.913315-1.184641-31.177356-2.596627-54.087658-10.513576-125.243424-47.469724-181.07568-94.079372-38.6531-32.268217-101.540414-96.039337-88.794373-161.612033 5.0946-26.209446 21.788724-50.775403 49.575235-73.185218 24.27196-19.527466 56.988673-36.90408 94.63007-50.267283 74.323007-26.505482 160.058394-35.206257 223.765998-22.822753 26.994748 5.247247 55.912283 17.897392 85.986385 37.699624 26.019317 17.0785 52.398866 39.116862 78.290586 65.237138 41.293141 41.746096 78.554015 92.182464 95.480962 128.784765l61.848974-15.788743c3.113851-0.820932 6.372302-0.289425 9.107294 1.362792 2.734992 1.652217 4.671117 4.269738 5.492049 7.38359 0.78277 3.310177 0.213101 6.764953-1.654522 9.559945-16.028824 24.287791-21.075136 37.670793-22.429879 44.640346-1.354744 6.969553-1.787408 21.249357 4.054973 49.890352 0.605526 3.173852-0.005063 6.315059-1.755443 9.03097-1.75038 2.715911-4.446983 4.534793-7.620835 5.140318-3.291096 0.684607-6.805873-0.100468-9.483622-2.047172l-54.640285-40.16378c-32.173719 23.49259-91.62243 51.565011-155.030748 72.755461-73.764145 24.678552-123.288975 31.045753-154.569783 31.07768z m4.322264-390.143305c-49.30436-0.00786-104.42148 9.449048-154.433685 27.233011-35.566416 12.64595-66.34723 28.972661-88.901456 47.000331-24.018392 19.27114-38.321434 39.921394-42.48107 61.320867-4.102393 21.104984 1.693325 44.745197 17.070828 70.451663 14.169437 23.53608 36.622703 48.47863 64.85378 71.997481 52.680016 43.95948 121.86977 80.024117 172.129081 89.793537 37.301833 7.250742 101.318888-2.921114 175.631089-27.798749 64.621674-21.6677 126.944233-51.422678 154.984312-74.08882l6.033909-4.837555 50.819987 37.281884c-2.283246-16.030184-2.409445-28.483058-0.596759-37.808516s6.692786-20.805206 14.716625-34.831896l-59.283179 15.166895-3.299824-8.179924c-11.609385-28.845142-45.306514-80.320606-94.586692-130.240884-53.302318-53.860124-107.893182-88.513227-153.833334-97.443088-18.100102-3.31456-37.937019-5.031161-58.823612-5.016237z" fill="#333333" p-id="2584"></path><path d="M218.350109 281.796272a27.7 27.6 11 1 0-10.532657 54.185821 27.7 27.6 11 1 0 10.532657-54.185821Z" fill="#8495B9" p-id="2585"></path><path d="M213.162563 346.511442c-2.353147 0.051953-4.747214-0.209663-7.201282-0.686686-20.417845-3.968827-33.782673-23.782999-29.832927-44.102681 3.949746-20.319683 23.763918-33.68451 44.181763-29.715683 20.417845 3.968827 33.782673 23.782999 29.832927 44.102681-3.472724 17.865615-19.34958 30.365832-36.980481 30.402369z m-0.063401-55.226769c-8.256475 0.025051-15.697307 5.811588-17.338264 14.253582-1.850847 9.521784 4.396616 18.784029 14.016563 20.653957 9.521784 1.850847 18.882192-4.377536 20.733039-13.899319 1.850847-9.521784-4.396616-18.784029-14.016563-20.653958-1.158872-0.327134-2.257743-0.438861-3.394775-0.354262z" fill="#333333" p-id="2586"></path><path d="M215.144518 298.287609a10.8 10.8 0 1 0-4.121474 21.203147 10.8 10.8 0 1 0 4.121474-21.203147Z" fill="#333333" p-id="2587"></path><path d="M223.510807 297.100155a7.5 7.5 0 1 0-2.862135 14.724408 7.5 7.5 0 1 0 2.862135-14.724408Z" fill="#FFFFFF" p-id="2588"></path><path d="M276.769887 412.867438c-2.647635-0.00529-5.300787-1.030369-7.332316-3.157077-3.806734-3.999847-3.586264-10.374908 0.511746-14.16256 26.518443-24.795608 41.140344-48.134417 43.59581-69.152045 2.455466-21.017628-6.609736-47.228925-26.680195-77.616862-3.084191-4.572501-1.764851-10.835834 2.788569-13.821862 4.572501-3.084191 10.835834-1.764851 13.821863 2.78857 22.838323 34.491463 32.888137 65.070888 29.890357 90.974812-2.99778 25.903925-19.735355 53.313842-49.746509 81.403531-1.87314 1.775204-4.398015 2.710621-6.849325 2.743493z" fill="#333333" p-id="2589"></path><path d="M387.252405 396.344931c7.630696 22.061334 38.511259 31.425673 69.087926 20.865964 30.557586-10.461546 107.362962-63.887983 102.642197-77.335822-4.761685-13.761408-99.659303-12.953891-130.216889-2.492345-30.478504 10.578789-49.064848 37.018113-41.513234 58.962203z" fill="#C1C5D7" p-id="2590"></path><path d="M371.382237 384.702863c7.630696 22.061334 38.511259 31.425673 69.087926 20.865964 30.557586-10.461546 107.362962-63.887983 102.642197-77.335822-4.761685-13.761408-99.659303-12.953891-130.216889-2.492346-30.478504 10.578789-49.045767 36.91995-41.513234 58.962204z" fill="#8495B9" p-id="2591"></path><path d="M415.268075 419.923783c-7.236686 0.019534-14.282562-0.942559-20.922223-2.94628-16.166961-4.874357-27.715212-15.166972-32.476897-28.92838-4.761685-13.761408-2.000471-29.014791 7.711215-42.815268 9.010983-12.816091 23.232864-23.091211 40.029041-28.791072 18.89024-6.515276 53.82744-8.587008 78.12789-8.345832 15.258673 0.113579 28.815934 1.118897 38.983937 2.789741 10.953304 1.823492 22.659265 5.015745 25.847362 14.29454 3.267179 9.396039-4.350672 18.713676-12.192203 26.56163-7.080827 7.078975-17.291828 15.58694-29.520568 24.517669-20.531198 14.95727-49.264159 32.802632-67.156449 38.90066-9.475121 3.149935-19.056679 4.751106-28.431105 4.762592z m69.53631-92.02256c-0.921626 0.024597-1.726009-0.029887-2.647635-0.00529-27.239814 0.206187-53.778699 3.095412-66.013181 7.338928-12.782539 4.4426-23.528032 12.031696-30.145175 21.441979-5.916439 8.425898-7.830045 17.222381-5.220118 24.758844 2.609927 7.536464 9.427059 13.343933 19.34701 16.290893 11.059742 3.372256 24.216078 2.771567 36.998617-1.671032 12.548052-4.284436 35.500672-17.548569 57.226145-32.884926 20.435793-14.466456 32.026362-25.354923 36.721396-31.165831-6.383335-1.750153-20.496927-4.086071-46.267059-4.103565z" fill="#333333" p-id="2592"></path><path d="M140.498687 349.80707c-1.529683 0.008275-3.021205-0.179776-4.493646-0.465989l3.81618-19.632544c2.15958 0.41978 4.406289-1.180937 4.883312-3.635005 0.324375-1.668766-0.251037-2.901203-0.646446-3.487422-0.376328-0.684381-1.24347-1.464166-2.519585-1.712218l3.81618-19.632543c6.380577 1.240258 11.872399 4.956424 15.392919 10.428712 3.539601 5.374126 4.731571 11.819993 3.491313 18.20057-2.289708 11.779526-12.443466 19.993002-23.740227 19.936439z" fill="#333333" p-id="2593"></path><path d="M349.519 213.994l29.921-1.536c1.104-0.042 2.06 0.81 2.103 1.913l1.008 18.979c0.043 1.103-0.809 2.06-1.912 2.102l-29.922 1.537c-1.104 0.042-2.06-0.81-2.103-1.913l-1.008-18.979c0.058-1.098 0.91-2.055 1.913-2.103zM397.83 213.122l4.011-0.09c1.104-0.043 2.06 0.808 2.103 1.912l0.609 18.958c0.042 1.104-0.81 2.06-1.913 2.103l-4.01 0.09c-1.104 0.042-2.06-0.81-2.103-1.913l-0.709-18.963c0.058-1.098 0.91-2.055 2.013-2.097zM425.004 214.345l3.99 0.31a2.006 2.006 0 0 1 1.892 2.101l-1.294 18.959a2.006 2.006 0 0 1-2.102 1.892l-3.99-0.309a2.006 2.006 0 0 1-1.892-2.102l1.294-18.958c0.063-1.198 1.009-2.05 2.102-1.893z" fill="#FFFFFF" p-id="2594"></path><path d="M483.731663 328.715402c112.295871-9.362551 198.392457-9.784327 258.303675-1.364355 26.143077 3.67417-47.585869 26.030656-31.617936 45.340889 16.322289 19.662982 56.136416 33.842027 97.519972 91.462261 27.622046 38.418128 45.44686 78.286863 53.474443 119.606203l-100.195834-99.008105L654.181944 394.881419l-170.450281-66.166017z" fill="#8495B9" p-id="2595"></path><path d="M877.43167 613.479154L754.54318 491.994097l-105.517592-88.44596-168.921521-65.547233 2.812903-19.29631c112.493925-9.334716 200.216691-9.830896 260.524016-1.355254 8.021171 1.127302 12.780881 4.623753 13.995965 10.348573 2.001409 9.470711-6.542197 14.934847-18.404541 22.457134-5.662729 3.647397-18.626679 11.822725-20.65325 16.183117 4.835718 5.829737 12.725745 11.482831 22.627353 18.630429 19.888326 14.408139 47.19938 34.201733 75.161864 73.071637 28.388031 39.434625 46.994354 80.927935 55.15201 123.47735l6.111283 31.961574zM528.535137 335.41605L659.338299 386.214701l108.946595 91.351461 74.044734 73.116601c-9.453038-27.584055-23.628317-54.619984-42.482479-80.697763-26.103992-36.286107-51.856846-54.951866-70.640354-68.598836-10.723263-7.767987-19.973436-14.521083-26.45407-22.298705-3.715378-4.46049-5.198102-9.718011-4.34754-15.051541 1.868131-11.855382 14.632422-20.76565 26.833598-28.543266-49.524109-5.445418-115.469007-5.422956-196.703646-0.076602z" fill="#333333" p-id="2596"></path><path d="M424.081528 784.044943C524.061662 819.201631 604.014297 840.940448 663.925515 849.36042c26.143077 3.67417-31.191294-34.577495-10.533227-48.639296 21.109844-14.402239 63.303831-17.156778 118.966546-61.138048 37.240513-29.30229 65.364137-62.713393 84.38479-100.332335l-123.632585 67.753038c-30.767369 21.325549-73.521798 38.845788-128.475258 52.63191-54.939543 13.687095-115.152664 21.785865-180.554253 24.409254z" fill="#8495B9" p-id="2597"></path><path d="M666.819772 859.663492c-1.315183 0.017129-2.715476-0.078687-4.299905-0.301364-60.307325-8.475642-141.618501-30.607355-241.697662-65.77796l2.925846-19.381419c64.383486-2.564508 124.511498-10.776222 178.504131-24.192466 53.483582-13.386804 95.687207-30.580522 125.226108-51.068894l0.451776-0.340438 0.437859-0.241411 152.065595-83.246711-14.656512 28.840886c-19.668877 38.63865-49.019363 73.594035-87.078319 103.690145-37.593262 29.656646-69.302186 41.155523-92.405411 49.622576-11.601126 4.226568-20.856654 7.570995-27.125855 11.94102l-0.225889 0.170219c-0.047641 3.931632 8.532895 14.73091 11.780974 18.923759 7.545305 9.542975 13.445695 17.138066 8.76895 25.266292-2.57898 3.979806-6.816793 6.110755-12.671686 6.095766z m-191.796714-68.762132C545.772623 814.174287 605.275956 829.807693 652.542788 837.662407c-7.616497-9.754946-15.178931-20.613104-13.521165-31.69019 0.864479-5.432557 3.837961-10.063799 8.751833-13.412509 8.387305-5.789051 19.12663-9.631824 31.589557-14.242188 21.817482-7.940873 51.731611-18.88413 86.826186-46.56934 25.325711-19.969686 46.403976-42.051053 63.107932-66.059964l-90.920009 49.831335c-31.54406 21.822288-75.697176 39.953817-131.357742 53.741545-40.918416 10.204567-85.152892 17.418524-131.996322 21.640264z m183.621396 18.434563z" fill="#333333" p-id="2598"></path><path d="M859.311161 592.240574l83.436252-26.041351c1.059855-0.355961 2.17859 0.306181 2.534551 1.366036 0.128467 0.522969 0.14399 1.131047-0.222677 1.584429-15.370039 26.014071-24.036229 46.002497-26.012487 60.064303-1.976258 14.061807 0.844662 35.66464 8.448841 64.907527 0.256934 1.045937-0.405208 2.164672-1.451145 2.421606-0.522969 0.128467-1.117129 0.044963-1.584429-0.222677l-77.275155-50.849486c-70.04837 55.087256-307.538775 141.879638-390.028106 130.286518-96.254056-13.527625-350.163046-138.278999-333.225679-258.794622 16.951284-120.614651 262.965489-209.13759 415.961905-187.635346 131.620544 18.397078 283.860032 186.116958 319.418129 262.913063z" fill="#EFF4FF" p-id="2599"></path><path d="M128.433891 556.776989c115.961495-101.549552 236.801517-147.276887 362.591258-136.970034s245.173768 76.970667 357.940111 200.062631l88.57709-53.997956-79.66895 22.228552c-62.958538-111.042796-132.013391-185.174822-207.46164-222.437829-113.136777-55.788526-143.202925-49.511841-301.808556-18.887444s-179.360064 95.668947-214.45571 129.110024c-23.340358 22.369347-25.202605 49.271987-5.713603 80.892056z" fill="#C1C5D7" p-id="2600"></path><path d="M474.510257 801.735428c-8.584286 0.00535-16.787988-0.541708-24.512079-1.627258-31.391498-4.411787-68.810247-16.234529-108.109433-34.077566-39.681376-17.997733-78.652969-41.045833-112.552784-66.410623-37.087406-27.832433-67.094662-57.901263-86.719627-87.116855-23.157811-34.256325-32.651529-67.299165-28.29541-98.294556 4.370035-31.094417 22.531026-61.159487 53.834747-89.175501 27.493061-24.61324 65.215324-47.283945 109.085277-65.556252 86.666134-36.089627 187.845846-51.861625 264.096487-41.145297 32.183712 4.523126 67.187277 17.723142 104.133372 39.375767 32.003854 18.736417 64.614714 43.213178 97.024842 72.710865 52.179622 47.625488 100.013837 106.05132 122.115538 148.540787l75.19722-23.462909c3.06662-0.982773 6.348422-0.622529 9.180053 0.785258 2.817714 1.506814 4.888176 4.019419 5.87095 7.08604 1.053965 3.278591 0.56686 6.744529-1.151926 9.633434-14.581036 24.7112-22.896082 43.638165-24.677497 56.313597-1.781416 12.675431 0.994541 33.161135 8.199402 60.934143 1.626714 6.388568-2.219275 12.916842-8.62176 14.642583-3.250756 0.855912-6.801804 0.255862-9.676793-1.56195l-69.513596-45.71936c-36.333748 30.035624-105.941043 67.61387-180.771062 97.086368-46.938178 18.547976-129.718177 47.105143-194.135921 47.039285z m16.108853-466.699973c-64.629714 0.005334-139.491847 15.335733-205.784149 42.978647-41.835353 17.447441-77.566374 38.883256-103.436466 62.007883-27.71895 24.783459-43.68315 50.714026-47.385154 77.055157-3.632418 25.845997 4.790206 54.295064 25.109963 84.315181 18.475183 27.337293 46.894799 55.769237 82.15476 82.234028 65.675102 49.320188 150.701117 88.131229 211.503576 96.676458 45.255251 6.360211 121.246824-9.821284 208.496413-44.314171 75.804765-29.941404 148.419798-69.520525 180.654907-98.415469l5.772462-5.146716 65.547707 43.041354c-4.332551-20.906435-5.698581-37.053693-4.014586-49.035937 1.683995-11.982244 7.348868-27.141373 17.375204-46.029798l-72.554542 22.62252-3.723406-7.996014c-15.63338-33.905714-59.269928-93.45831-121.298701-150.041712-67.031498-61.224817-134.703198-99.212592-190.45529-107.048038-15.093827-1.818351-31.20415-2.870716-47.962698-2.903373z" fill="#333333" p-id="2601"></path><path d="M222.662833 461.083844a33 33 0 1 0-9.185425 65.357692 33 33 0 1 0 9.185425-65.357692Z" fill="#8495B9" p-id="2602"></path><path d="M218.189871 536.784037c-2.022288 0.018734-4.016742-0.160585-6.096304-0.452849-23.469353-3.298402-39.895486-25.096617-36.597084-48.56597s25.096617-39.895486 48.565971-36.597084c11.388083 1.600491 21.456699 7.559766 28.350568 16.70824 6.893869 9.148473 9.847006 20.469648 8.246515 31.85773s-7.559766 21.456699-16.70824 28.350569c-7.468229 5.716254-16.470035 8.692408-25.761426 8.699364z m-0.121489-65.958815c-11.313679 0.02569-21.166046 8.335375-22.780455 19.822485-1.767498 12.576404 6.99878 24.209649 19.575185 25.977146 6.040635 0.848956 12.118205-0.720483 17.073829-4.366274 4.856597-3.659708 8.040444-9.069248 8.903318-15.20891 0.848956-6.040635-0.720483-12.118205-4.366275-17.073829-3.659708-4.856597-9.069248-8.040444-15.20891-8.903318-1.075378-0.252117-2.079563-0.292264-3.196692-0.2473z" fill="#333333" p-id="2603"></path><path d="M219.865453 480.988232a12.9 12.9 0 1 0-3.590666 25.548916 12.9 12.9 0 1 0 3.590666-25.548916Z" fill="#333333" p-id="2604"></path><path d="M229.767675 479.063624a9 9 0 1 0-2.505116 17.824826 9 9 0 1 0 2.505116-17.824826Z" fill="#FFFFFF" p-id="2605"></path><path d="M299.833441 611.877429c-2.517422-0.050852-5.022533-0.907836-6.879419-2.784529-4.010852-3.795137-4.12433-10.172999-0.329193-14.183851 30.291508-31.591685 46.503008-60.718945 48.198247-86.433263 1.596213-25.728236-10.905244-56.7702-37.021548-92.250176-3.31927-4.404821-2.329536-10.728619 2.061368-13.948862 4.404821-3.31927 10.728619-2.329536 13.948862 2.061367 29.010027 39.320076 42.808466 74.785595 40.94033 105.322787-1.882054 30.636218-19.993264 63.939733-53.699324 98.989861-1.932362 2.252993-4.588957 3.192409-7.219323 3.226666z" fill="#333333" p-id="2606"></path><path d="M430.932099 587.283489c10.410654 25.799967 47.894173 35.006259 83.655167 20.542467 35.760994-14.463792 124.050642-82.94268 117.665291-98.583565-6.527736-16.064827-119.677913-9.245927-155.438907 5.217865-35.747077 14.364765-56.292206 47.023266-45.881551 72.823233z" fill="#C1C5D7" p-id="2607"></path><path d="M411.245037 574.317395c10.410654 25.799967 47.894173 35.006259 83.655168 20.542467 35.760994-14.463792 124.050642-82.94268 117.665291-98.583565-6.527736-16.064827-119.677913-9.245927-155.438908 5.217865-35.760994 14.463792-56.292206 47.023266-45.881551 72.823233z" fill="#8495B9" p-id="2608"></path><path d="M460.92651 611.69548c-6.760052-0.041219-13.422683-0.775625-19.676895-2.260493-19.031881-4.694412-32.930425-15.736173-39.216749-31.36314-6.300242-15.527941-4.021014-33.182547 6.491356-49.781044 9.751201-15.493678 25.801578-28.385359 44.960859-36.093921 20.445024-8.234743 60.950738-13.347191 91.947201-14.74694 18.18507-0.776686 34.208678-0.54437 46.3317 0.856462 17.894412 2.009982 26.983466 6.316848 30.126629 14.130332 4.03922 10.060055-4.067599 21.038646-12.460794 30.462249-7.913583 8.885111-19.500258 19.475624-33.51764 30.835333-23.376221 19.031876-56.388555 41.960588-77.158494 50.351632-12.532513 5.105498-25.509309 7.623987-37.827173 7.60953z m103.571371-114.701922c-6.872996 0.043891-14.778012 0.245689-23.827992 0.690505-33.088337 1.913617-65.122709 7.105824-79.788849 13.02227-15.414997 6.215132-28.035298 16.256447-35.574186 28.223701-6.890663 10.947546-8.67529 22.208767-4.849646 31.632909s12.863846 16.24843 25.443461 19.430138c13.767937 3.348716 29.830087 1.869742 45.146057-4.359307 15.090082-6.058831 42.189175-23.557663 67.429777-43.640294 25.791405-20.409151 38.938958-34.920589 42.996918-41.520056-4.925111-1.601024-16.271442-3.498595-36.97554-3.479866z" fill="#333333" p-id="2609"></path><path d="M132.677274 545.265525c-1.216156 0.031046-2.418395-0.036935-3.705744-0.21786l2.783462-19.805362c3.663992 0.51494 7.193094-2.321508 7.749786-6.28258 0.278346-1.980536-0.150413-3.959467-1.341945-5.540684-1.106423-1.468274-2.593431-2.384138-4.375914-2.63465l2.783462-19.805361c7.12993 1.002046 13.460151 4.820201 17.786818 10.679378 4.22764 5.845259 5.954987 12.95485 4.952941 20.084779-1.920589 13.665699-13.50887 23.549107-26.632866 23.52234z" fill="#333333" p-id="2610"></path><path d="M374.2 372.5l36.8-3.9c1.1-0.1 2.1 0.7 2.2 1.8l2.4 22.9c0.1 1.1-0.7 2.1-1.8 2.2l-36.8 3.9c-1.1 0.1-2.1-0.7-2.2-1.8l-2.4-22.9c-0.1-1.1 0.7-2.1 1.8-2.2zM431.3 367.8l6-0.5c1.1-0.1 2.1 0.7 2.2 1.8l2 22.9c0.1 1.1-0.7 2.1-1.8 2.2l-6 0.5c-1.1 0.1-2.1-0.7-2.2-1.8l-2-22.9c-0.1-1.1 0.7-2.1 1.8-2.2zM463.7 367.5l6 0.1c1.1 0 2 0.9 2 2l-0.4 23c0 1.1-0.9 2-2 2l-6-0.1c-1.1 0-2-0.9-2-2l0.4-23c0-1.2 0.9-2.1 2-2z" fill="#FFFFFF" p-id="2611"></path></svg>